# xmcd
#
# Track frame offsets: 
#        150
#        19632
#        37651
#        55726
#        72770
#        91670
#        110758
#        130390
#        148953
#        167610
#
# Disc length: 2443 seconds
#
# Revision: 0
# Processed by: cddbd v1.5.2PL0 Copyright (c) Steve Scherf et al.
# Submitted via: ExactAudioCopy v0.99pb4
#
DISCID=7f09890a
DTITLE=อั้ม นันทิยา - วัยทีนยโสธร
DYEAR=2009
DGENRE=Country
TTITLE0=วัยทีนยโสธร
TTITLE1=อยากโทรหาใจสิขาด
TTITLE2=ทั้งฮักทั้งย่าน
TTITLE3=อ้ายบ่คือเก่า
TTITLE4=บ่อยากกลับไปเสียใจ
TTITLE5=สาวเชียร์บอล
TTITLE6=เป็นกำลังใจให้แนเด้อ
TTITLE7=ฮักที่ต้องจากลา
TTITLE8=รักช้าๆก็ได้
TTITLE9=คิดฮอดแกงหน่อไม้
EXTD=
EXTT0=
EXTT1=
EXTT2=
EXTT3=
EXTT4=
EXTT5=
EXTT6=
EXTT7=
EXTT8=
EXTT9=
PLAYORDER=
